PathFileType	4	(X/Y/Z)	SUBJ62_2_walk_RCNL2025.trc
DataRate	CameraRate	NumFrames	NumMarkers	Units	OrigDataRate	OrigDataStartFrame	OrigNumFrames
100	100	11	25	mm	100	154	306
Frame#	Time	R_Shoulder			L_Shoulder			C7			J_Notch			R_Elbow			L_Elbow			R_Wrist			L_Wrist			R_Asis			L_Asis			Sacral			Thoracic			Sternum			R_Thigh_Lateral			R_Knee_Lateral			R_Shank_Lateral			R_Ankle_Lateral			R_Heel			R_Toe			L_Thigh_Lateral			L_Knee_Lateral			L_Shank_Lateral			L_Ankle_Lateral			L_Heel			L_Toe		
		X1	Y1	Z1	X2	Y2	Z2	X3	Y3	Z3	X4	Y4	Z4	X5	Y5	Z5	X6	Y6	Z6	X7	Y7	Z7	X8	Y8	Z8	X9	Y9	Z9	X10	Y10	Z10	X11	Y11	Z11	X12	Y12	Z12	X13	Y13	Z13	X14	Y14	Z14	X15	Y15	Z15	X16	Y16	Z16	X17	Y17	Z17	X18	Y18	Z18	X19	Y19	Z19	X20	Y20	Z20	X21	Y21	Z21	X22	Y22	Z22	X23	Y23	Z23	X24	Y24	Z24	X25	Y25	Z25
154	1.53000000	489.468048	1282.444580	10.687510	444.415131	1294.355835	-324.880646	397.010315	1354.745483	-150.418121	526.044739	1267.388672	-164.857285	504.594818	990.057739	91.245972	392.673218	992.959473	-380.214020	640.875519	816.382019	67.917959	437.043259	777.621948	-375.418610	520.207520	872.826843	-16.070572	522.342468	877.719482	-275.994751	347.903381	872.265991	-151.392410	337.978302	1157.290527	-141.990143	544.297058	1067.600098	-162.218567	432.195038	482.753693	36.082664	432.624695	425.225037	-41.040756	407.397736	247.910141	-9.519895	366.497955	62.537804	-87.692871	317.476196	48.663883	-131.241318	469.477356	44.640358	-96.184052	584.845703	494.441742	-334.642151	593.222961	433.240692	-287.673553	547.138550	251.375320	-320.583374	477.232422	97.277084	-258.061493	422.421295	111.405212	-212.385681	574.491760	52.097782	-250.370667
155	1.54000000	499.922516	1281.578003	10.724271	454.413940	1293.129028	-324.887939	407.303345	1353.732178	-150.302841	536.386292	1266.357422	-164.733078	518.987854	989.659973	91.472786	397.362030	992.363770	-378.983856	659.452423	819.640015	65.569572	438.072388	776.333374	-374.788071	530.253479	871.442566	-15.988590	533.314514	876.988892	-276.043793	358.422119	871.305298	-151.916641	348.399475	1156.249390	-141.863403	554.768494	1066.598022	-161.933762	436.625946	482.575928	35.642029	436.675293	424.848785	-41.419743	409.621613	247.787155	-9.819445	366.826172	62.793125	-87.978539	317.575928	49.412624	-131.538071	469.651367	44.540257	-96.342468	600.060059	495.039154	-334.785278	608.172180	432.941376	-287.744720	573.759888	247.353851	-320.440796	512.893799	89.323311	-258.361328	456.670563	100.170029	-213.316101	612.876099	50.673252	-249.626404
156	1.55000000	510.394592	1280.531494	10.704110	464.482513	1291.726562	-324.964172	417.630219	1352.552734	-150.272049	546.761658	1265.161011	-164.670807	533.244812	989.121521	91.614830	402.307098	991.680542	-377.804047	677.689514	822.779785	63.166836	439.408356	775.030182	-374.169922	540.296265	869.956299	-15.989373	544.364807	876.072205	-276.171387	369.005249	870.194946	-152.511063	358.822754	1155.051514	-141.877747	565.281250	1065.433105	-161.718384	441.357239	482.352386	35.202766	440.901794	424.434937	-41.820332	411.904358	247.669571	-10.122893	367.176636	63.094501	-88.274475	317.696442	50.207535	-131.836395	469.806549	44.446907	-96.476143	614.489502	495.227509	-334.828949	622.320007	432.306427	-287.751526	599.739990	243.975189	-320.466217	548.815552	82.292244	-258.740906	491.420776	89.704193	-214.309860	651.094727	50.293682	-249.072296
157	1.56000000	520.878479	1279.320801	10.620783	474.624542	1290.171997	-325.113068	427.996246	1351.217896	-150.328339	557.172363	1263.815918	-164.673828	547.368591	988.451599	91.666092	407.539001	990.915100	-376.678589	695.572449	825.785431	60.726303	441.070175	773.712830	-373.564560	550.312683	868.384521	-16.052299	555.515442	874.982788	-276.356750	379.666412	868.943176	-153.200378	369.261871	1153.700439	-142.023071	575.834045	1064.119263	-161.579041	446.403259	482.065033	34.758797	445.333679	423.981201	-42.250072	414.282684	247.550934	-10.457335	367.557312	63.455994	-88.590446	317.869141	51.053398	-132.154556	469.951630	44.366493	-96.579727	628.066956	494.979431	-334.803864	635.667480	431.331390	-287.714020	624.895752	241.269684	-320.692780	584.737732	76.362518	-259.224792	526.431274	80.219345	-215.372559	688.872131	51.050125	-248.725510
158	1.57000000	531.363770	1277.963379	10.469288	484.847198	1288.489746	-325.339081	438.401611	1349.743164	-150.474655	567.620361	1262.339600	-164.744263	561.356628	987.659668	91.618095	413.080933	990.072998	-375.612915	713.080994	828.635620	58.262199	443.074341	772.383484	-372.964905	560.282227	866.747070	-16.156713	566.794189	873.732971	-276.586304	390.418915	867.557922	-154.005768	379.736938	1152.202148	-142.280441	586.427979	1062.674194	-161.518829	451.773041	481.704132	34.303326	450.005981	423.490021	-42.714413	416.791077	247.430664	-10.845170	367.976959	63.893669	-88.935951	318.109467	51.973568	-132.507309	470.101959	44.302528	-96.661201	640.743164	494.266449	-334.758942	648.244934	430.028015	-287.661682	649.094421	239.228943	-321.127777	620.350220	71.655746	-259.824310	561.404419	71.885071	-216.494354	725.903625	52.971657	-248.602539
159	1.58000000	541.839600	1276.477539	10.245041	495.159821	1286.705566	-325.647949	448.840149	1348.149292	-150.715576	578.108521	1260.752441	-164.883682	575.199036	986.756653	91.460945	418.950378	989.160950	-374.614136	730.194397	831.307343	55.788328	445.439728	771.045929	-372.361008	570.203308	865.065430	-16.290564	578.225769	872.334656	-276.851288	401.275146	866.049683	-154.943787	390.270935	1150.568115	-142.629272	597.066040	1061.121216	-161.538742	457.475189	481.266052	33.829796	454.957123	422.966339	-43.216053	419.462463	247.314682	-11.298018	368.445770	64.426468	-89.316223	318.422485	53.001305	-132.902466	470.268646	44.258827	-96.737579	652.495544	493.063812	-334.748932	660.110046	428.428864	-287.627319	672.260803	237.815689	-321.751190	655.305908	68.225090	-260.538635	595.995361	64.816101	-217.654816	761.869873	56.006420	-248.708588
160	1.59000000	552.299438	1274.885010	9.941600	505.571838	1284.847900	-326.046875	459.304504	1346.462769	-151.058273	588.640381	1259.078979	-165.094437	588.881592	985.757690	91.184982	425.160400	988.187988	-373.690582	746.892487	833.778442	53.318107	448.193359	769.706604	-371.749405	580.104126	863.361084	-16.454849	589.826477	870.799622	-277.145874	412.245453	864.435425	-156.026443	400.885925	1148.816040	-143.054871	607.753418	1059.487427	-161.638504	463.520966	480.751251	33.332928	460.225464	422.416260	-43.755123	422.328033	247.213272	-11.815367	368.974884	65.076767	-89.728470	318.807037	54.175369	-133.336456	470.457092	44.240238	-96.824287	663.331970	491.356873	-334.822571	671.345459	426.586182	-287.642181	694.370850	236.970200	-322.521667	689.239014	66.047432	-261.356628	629.826965	59.063622	-218.831818	796.450500	60.008419	-249.032074
161	1.60000000	562.742920	1273.213135	9.551006	516.091492	1282.947021	-326.543457	469.792999	1344.714600	-151.511932	599.220276	1257.350586	-165.381119	602.388794	984.681519	90.781517	431.721771	987.166870	-372.850708	763.154694	836.028442	50.864393	451.371475	768.375946	-371.139572	590.038513	861.654297	-16.659027	601.602295	869.142273	-277.466522	423.336670	862.741028	-157.261124	411.599060	1146.970215	-143.553665	618.499268	1057.802490	-161.818069	469.923828	480.164581	32.810501	465.845673	421.846527	-44.328465	425.412872	247.140182	-12.385489	369.573486	65.868988	-90.158646	319.258575	55.537342	-133.790009	470.671600	44.251598	-96.927292	673.294922	489.150574	-335.014496	682.056519	424.564880	-287.730499	715.434021	236.610550	-323.386261	721.781006	65.017136	-262.252808	662.504456	54.608482	-220.000427	829.338623	64.741714	-249.548279
162	1.61000000	573.174255	1271.494629	9.066313	526.724854	1281.034546	-327.145569	480.311920	1342.936401	-152.085800	609.852600	1255.603394	-165.751144	615.702881	983.548279	90.243080	438.645355	986.113281	-372.103027	778.957947	838.039185	48.440174	455.016571	767.067841	-370.553177	600.068115	859.963989	-16.913599	613.547791	867.382507	-277.812134	434.552216	861.000427	-158.648987	422.417572	1145.063477	-144.137054	629.317200	1056.098267	-162.079651	476.697083	479.517151	32.265198	471.846558	421.264526	-44.927612	428.733185	247.114044	-12.984472	370.246216	66.827011	-90.579063	319.771301	57.127907	-134.225021	470.917694	44.297119	-97.042282	682.468628	486.481995	-335.340302	692.369629	422.434662	-287.906097	735.470337	236.628769	-324.288086	752.572876	64.946297	-263.182281	693.627991	51.356236	-221.118469	860.248047	69.896591	-250.225128
163	1.62000000	583.601013	1269.765259	8.482840	537.474304	1279.141968	-327.860992	490.872162	1341.159180	-152.787399	620.541138	1253.875366	-166.214569	628.802490	982.379028	89.564110	445.944305	985.045166	-371.458099	794.276855	839.795105	46.059518	459.173721	765.797272	-370.018051	610.243042	858.307251	-17.226429	625.647400	865.547485	-278.183655	445.895050	859.252991	-160.181671	433.331879	1143.136963	-144.836258	640.222778	1054.408936	-162.428207	483.849548	478.828796	31.706388	478.248352	420.678436	-45.536434	432.300140	247.160172	-13.574167	370.995667	67.973274	-90.947868	320.339569	58.983231	-134.586426	471.202515	44.380539	-97.156860	690.988831	483.432617	-335.793762	702.430298	420.267395	-288.173279	754.488708	236.888962	-325.170776	781.275574	65.576889	-264.083496	722.806091	49.139969	-222.118637	888.915466	75.110321	-251.025574
164	1.63000000	594.034058	1268.062866	7.797411	548.338440	1277.300293	-328.696594	501.484985	1339.412598	-153.622330	631.290771	1252.201294	-166.782532	641.662109	981.195190	88.742203	453.634644	983.981445	-370.931793	809.085266	841.282440	43.737506	463.888092	764.578644	-369.562576	620.593262	856.701233	-17.602293	637.878296	863.671570	-278.584015	457.370148	857.541016	-161.840393	444.308258	1141.238647	-145.707901	651.232178	1052.767578	-162.871033	491.382019	478.129456	31.150635	485.060486	420.097168	-46.129734	436.128143	247.310867	-14.103467	371.827881	69.329689	-91.213654	320.961975	61.133881	-134.812195	471.534973	44.505672	-97.253105	699.050781	480.137207	-336.346863	712.397705	418.136292	-288.528137	772.474121	237.233582	-325.982910	807.584961	66.603569	-264.889343	749.675232	47.733913	-222.923538	915.104797	79.994675	-251.907242
